<?xml version="1.0" encoding="UTF-8"?>
<svg id="Layer_1" xmlns="http://www.w3.org/2000/svg" version="1.1" viewBox="0 0 129.23 62.44">
  <!-- Generator: Adobe Illustrator 29.3.1, SVG Export Plug-In . SVG Version: 2.1.0 Build 151)  -->
  <defs>
    <style>
      .st0 {
        fill: #0a2240;
      }

      .st1 {
        fill: #fff;
      }

      .st2 {
        fill: #ec1c24;
      }
    </style>
  </defs>
  <rect class="st0" x=".2" y=".22" width="128.82" height="62" rx="11.75" ry="11.75"/>
  <g>
    <g>
      <path class="st1" d="M46.37,52.35v2.81c-.05,0-.09,0-.13,0-.13-.01-.2-.02-.21-.02-.05,0-.12,0-.2.01s-.13.01-.14.01v-2.81c-.16,0-.3,0-.42.02-.12.01-.26.03-.42.05,0-.04.01-.08.02-.11,0-.03,0-.06,0-.08,0-.04,0-.08,0-.11,0-.03-.01-.06-.01-.08h2.32s-.01.08-.02.11c0,.03,0,.06,0,.08,0,.05,0,.08,0,.12,0,.03.01.06.01.08-.22-.03-.35-.04-.4-.05-.14-.01-.27-.02-.41-.02Z"/>
      <path class="st1" d="M47.66,55.16v-3.13c.05,0,.12,0,.2.01.08,0,.13.01.14.01.05,0,.09,0,.13,0,.13-.01.2-.02.21-.02v1.24c.11,0,.24,0,.4.01.16,0,.26.01.29.01.11,0,.19,0,.26,0,.26-.01.41-.02.43-.02v-1.24c.05,0,.12,0,.2.01.08,0,.13.01.14.01.05,0,.09,0,.13,0,.13-.01.2-.02.21-.02v3.13c-.05,0-.09,0-.13,0-.13-.01-.2-.02-.21-.02-.05,0-.12,0-.2.01-.08,0-.13.01-.14.01v-1.53c-.11,0-.19,0-.26,0-.26-.01-.41-.02-.43-.02-.11,0-.24,0-.41.01-.17,0-.26.01-.28.01v1.53c-.05,0-.09,0-.13,0-.13-.01-.2-.02-.21-.02-.05,0-.12,0-.2.01s-.13.01-.14.01Z"/>
      <path class="st1" d="M51.12,52.03h1.72s-.01.07-.02.1c0,.04,0,.07,0,.09,0,.02,0,.05,0,.1,0,.04.01.08.01.1-.15-.02-.31-.04-.48-.05-.16-.01-.35-.02-.57-.02v.98h.47c.12,0,.21,0,.27,0,.06,0,.16-.02.28-.03,0,.03-.01.07-.02.1,0,.04,0,.07,0,.09,0,.02,0,.05,0,.1,0,.04.01.08.01.1-.07,0-.16-.02-.27-.03-.11,0-.2-.01-.29-.01h-.47v1.16c.21,0,.4,0,.57-.02.16-.01.32-.03.48-.05,0,.03-.01.07-.02.1,0,.04,0,.07,0,.09,0,.02,0,.05,0,.1,0,.04.01.08.01.1h-1.72v-3.11Z"/>
      <path class="st1" d="M57.02,54.6l.06.03-.1.39c-.13.07-.27.12-.42.15-.15.03-.31.05-.47.05-.49,0-.89-.14-1.21-.41-.32-.29-.49-.66-.49-1.12,0-.57.18-1.01.53-1.31.32-.28.74-.42,1.27-.42.16,0,.32.02.48.06.16.04.31.09.44.17-.02.06-.03.13-.05.22-.02.09-.04.17-.05.25h-.06c-.08-.12-.19-.23-.33-.3s-.27-.12-.42-.12c-.35,0-.62.15-.81.45-.16.26-.24.57-.24.95,0,.4.09.72.28.96.19.24.45.36.79.36.14,0,.28-.03.43-.09.15-.06.27-.14.38-.25Z"/>
      <path class="st1" d="M59.13,54.2h-1.05c-.1.28-.17.48-.21.61-.04.13-.08.24-.11.34l-.21-.02-.22.02,1.29-3.17h.17s.17,0,.17,0l1.26,3.17c-.05,0-.13,0-.22-.01-.09,0-.15-.01-.17-.01-.05,0-.13,0-.22.01-.09,0-.15.01-.17.01-.07-.22-.12-.38-.15-.49-.06-.18-.11-.33-.17-.47ZM58.21,53.93h.82l-.4-1.06-.42,1.06Z"/>
      <path class="st1" d="M60.62,55.16v-3.13h.96c.21,0,.36,0,.45.01.1,0,.19.03.27.08.26.14.39.36.39.65,0,.22-.06.4-.19.54-.13.14-.3.24-.51.28.12.21.28.47.49.8.14.22.24.38.31.48l.18.28c-.06,0-.13,0-.23-.01s-.16-.01-.18-.01c-.06,0-.13,0-.23.01s-.16.01-.17.01l-.54-.96-.29-.51h-.03v1.46c-.05,0-.09,0-.13,0-.13-.01-.2-.02-.21-.02-.05,0-.12,0-.2.01s-.13.01-.14.01ZM61.3,52.28v1.22s.04,0,.06,0h.06c.39,0,.59-.22.59-.65,0-.07,0-.15-.02-.23-.03-.14-.1-.24-.21-.29-.08-.03-.19-.05-.35-.05h-.13Z"/>
      <path class="st1" d="M63.39,52.03h1.72s-.01.07-.02.1c0,.04,0,.07,0,.09,0,.02,0,.05,0,.1,0,.04.01.08.01.1-.15-.02-.31-.04-.48-.05-.16-.01-.35-.02-.57-.02v.98h.47c.12,0,.21,0,.27,0,.06,0,.16-.02.28-.03,0,.03-.01.07-.02.1,0,.04,0,.07,0,.09,0,.02,0,.05,0,.1,0,.04.01.08.01.1-.07,0-.16-.02-.27-.03-.11,0-.2-.01-.29-.01h-.47v1.16c.21,0,.4,0,.57-.02.16-.01.32-.03.48-.05,0,.03-.01.07-.02.1,0,.04,0,.07,0,.09,0,.02,0,.05,0,.1,0,.04.01.08.01.1h-1.72v-3.11Z"/>
      <path class="st1" d="M69.4,52.35v2.81c-.05,0-.09,0-.13,0-.13-.01-.2-.02-.21-.02-.05,0-.12,0-.2.01s-.13.01-.14.01v-2.81c-.16,0-.3,0-.42.02-.12.01-.26.03-.42.05,0-.04.01-.08.02-.11,0-.03,0-.06,0-.08,0-.04,0-.08,0-.11s-.01-.06-.01-.08h2.32s-.01.08-.02.11c0,.03,0,.06,0,.08,0,.05,0,.08,0,.12,0,.03.01.06.01.08-.22-.03-.35-.04-.4-.05-.14-.01-.27-.02-.41-.02Z"/>
      <path class="st1" d="M70.69,55.16v-3.13c.05,0,.12,0,.2.01.08,0,.13.01.14.01.05,0,.09,0,.13,0,.13-.01.2-.02.21-.02v1.24c.11,0,.24,0,.4.01.16,0,.26.01.29.01.11,0,.19,0,.26,0,.26-.01.41-.02.43-.02v-1.24c.05,0,.12,0,.2.01.08,0,.13.01.14.01.05,0,.09,0,.13,0,.13-.01.2-.02.21-.02v3.13c-.05,0-.09,0-.13,0-.13-.01-.2-.02-.21-.02-.05,0-.12,0-.2.01s-.13.01-.14.01v-1.53c-.11,0-.19,0-.26,0-.26-.01-.41-.02-.43-.02-.11,0-.24,0-.41.01-.17,0-.26.01-.28.01v1.53c-.05,0-.09,0-.13,0-.13-.01-.2-.02-.21-.02-.05,0-.12,0-.2.01-.08,0-.13.01-.14.01Z"/>
      <path class="st1" d="M74.15,52.03h1.72s-.01.07-.02.1c0,.04,0,.07,0,.09,0,.02,0,.05,0,.1,0,.04.01.08.01.1-.15-.02-.31-.04-.48-.05-.16-.01-.35-.02-.57-.02v.98h.47c.12,0,.21,0,.27,0,.06,0,.16-.02.28-.03,0,.03-.01.07-.02.1,0,.04,0,.07,0,.09,0,.02,0,.05,0,.1,0,.04.01.08.01.1-.07,0-.16-.02-.27-.03-.11,0-.2-.01-.29-.01h-.47v1.16c.21,0,.4,0,.57-.02.16-.01.32-.03.48-.05,0,.03-.01.07-.02.1,0,.04,0,.07,0,.09,0,.02,0,.05,0,.1,0,.04.01.08.01.1h-1.72v-3.11Z"/>
      <path class="st1" d="M80.05,54.6l.06.03-.1.39c-.13.07-.27.12-.42.15-.15.03-.31.05-.47.05-.49,0-.89-.14-1.21-.41-.32-.29-.49-.66-.49-1.12,0-.57.18-1.01.53-1.31.32-.28.74-.42,1.27-.42.16,0,.32.02.48.06.16.04.31.09.44.17-.02.06-.03.13-.05.22-.02.09-.04.17-.05.25h-.06c-.08-.12-.19-.23-.33-.3-.14-.08-.27-.12-.42-.12-.35,0-.62.15-.81.45-.16.26-.24.57-.24.95,0,.4.09.72.28.96s.45.36.79.36c.14,0,.28-.03.43-.09.15-.06.27-.14.38-.25Z"/>
      <path class="st1" d="M83.91,53.57c0,.46-.16.85-.47,1.16-.33.32-.76.49-1.3.49-.51,0-.91-.14-1.21-.43s-.45-.68-.45-1.2c0-.47.15-.86.46-1.16.32-.32.76-.48,1.31-.48.58,0,1.02.18,1.32.55.23.29.35.65.35,1.08ZM82.22,52.22c-.32,0-.57.12-.73.36-.18.26-.27.63-.27,1.13,0,.33.07.61.22.83.17.26.41.39.73.39s.58-.15.76-.44c.16-.27.24-.61.24-1.02,0-.34-.07-.62-.22-.85-.17-.27-.41-.41-.73-.41Z"/>
      <path class="st1" d="M84.44,55.15v-3.12h.45c.2.22.41.45.64.7.13.14.35.38.66.72.31.34.52.58.64.72v-2.13h.18s.18,0,.18,0v3.13h-.38c-.26-.29-.51-.58-.76-.87-.26-.3-.52-.57-.76-.83l-.49-.52v2.22l-.18-.02h-.18Z"/>
      <path class="st1" d="M90.31,54.6l.06.03-.1.39c-.13.07-.27.12-.42.15-.15.03-.31.05-.47.05-.49,0-.89-.14-1.21-.41-.32-.29-.49-.66-.49-1.12,0-.57.18-1.01.53-1.31.32-.28.74-.42,1.27-.42.16,0,.32.02.48.06.16.04.31.09.44.17-.02.06-.03.13-.05.22-.02.09-.04.17-.05.25h-.06c-.08-.12-.19-.23-.33-.3-.14-.08-.27-.12-.42-.12-.35,0-.62.15-.81.45-.16.26-.24.57-.24.95,0,.4.09.72.28.96s.45.36.79.36c.14,0,.28-.03.43-.09.15-.06.27-.14.38-.25Z"/>
      <path class="st1" d="M90.92,52.03h1.72s-.01.07-.02.1c0,.04,0,.07,0,.09,0,.02,0,.05,0,.1,0,.04.01.08.01.1-.15-.02-.31-.04-.48-.05-.16-.01-.35-.02-.57-.02v.98h.47c.12,0,.21,0,.27,0,.06,0,.16-.02.28-.03,0,.03-.01.07-.02.1,0,.04,0,.07,0,.09,0,.02,0,.05,0,.1,0,.04.01.08.01.1-.07,0-.16-.02-.27-.03-.11,0-.2-.01-.29-.01h-.47v1.16c.21,0,.4,0,.57-.02.16-.01.32-.03.48-.05,0,.03-.01.07-.02.1,0,.04,0,.07,0,.09,0,.02,0,.05,0,.1,0,.04.01.08.01.1h-1.72v-3.11Z"/>
      <path class="st1" d="M93.16,55.16v-3.13h.96c.21,0,.36,0,.45.01.1,0,.19.03.27.08.26.14.39.36.39.65,0,.22-.06.4-.19.54-.13.14-.3.24-.51.28.12.21.28.47.49.8.14.22.24.38.31.48l.18.28c-.06,0-.13,0-.23-.01s-.16-.01-.18-.01c-.06,0-.13,0-.23.01s-.16.01-.17.01l-.54-.96-.29-.51h-.03v1.46c-.05,0-.09,0-.13,0-.13-.01-.2-.02-.21-.02-.05,0-.12,0-.2.01s-.13.01-.14.01ZM93.84,52.28v1.22s.04,0,.06,0h.06c.39,0,.59-.22.59-.65,0-.07,0-.15-.02-.23-.03-.14-.1-.24-.21-.29-.08-.03-.19-.05-.35-.05h-.13Z"/>
      <path class="st1" d="M95.95,55.15v-3.12h.45c.2.22.41.45.64.7.13.14.35.38.66.72.31.34.52.58.64.72v-2.13h.18s.18,0,.18,0v3.13h-.38c-.26-.29-.51-.58-.76-.87-.26-.3-.52-.57-.76-.83l-.49-.52v2.22l-.18-.02h-.18Z"/>
      <path class="st1" d="M103.19,52.35v2.81c-.05,0-.09,0-.13,0-.13-.01-.2-.02-.21-.02-.05,0-.12,0-.2.01s-.13.01-.14.01v-2.81c-.16,0-.3,0-.42.02-.12.01-.26.03-.42.05,0-.04.01-.08.02-.11,0-.03,0-.06,0-.08,0-.04,0-.08,0-.11s-.01-.06-.01-.08h2.32s-.01.08-.02.11c0,.03,0,.06,0,.08,0,.05,0,.08,0,.12,0,.03.01.06.01.08-.22-.03-.35-.04-.4-.05-.14-.01-.27-.02-.41-.02Z"/>
      <path class="st1" d="M104.47,55.16v-3.13c.05,0,.12,0,.2.01.08,0,.13.01.14.01.05,0,.09,0,.13,0,.13-.01.2-.02.21-.02v1.24c.11,0,.24,0,.4.01.16,0,.26.01.29.01.11,0,.19,0,.26,0,.26-.01.41-.02.43-.02v-1.24c.05,0,.12,0,.2.01.08,0,.13.01.14.01.05,0,.09,0,.13,0,.13-.01.2-.02.21-.02v3.13c-.05,0-.09,0-.13,0-.13-.01-.2-.02-.21-.02-.05,0-.12,0-.2.01s-.13.01-.14.01v-1.53c-.11,0-.19,0-.26,0-.26-.01-.41-.02-.43-.02-.11,0-.24,0-.41.01-.17,0-.26.01-.28.01v1.53c-.05,0-.09,0-.13,0-.13-.01-.2-.02-.21-.02-.05,0-.12,0-.2.01-.08,0-.13.01-.14.01Z"/>
      <path class="st1" d="M107.94,52.03h1.72s-.01.07-.02.1c0,.04,0,.07,0,.09,0,.02,0,.05,0,.1,0,.04.01.08.01.1-.15-.02-.31-.04-.48-.05-.16-.01-.35-.02-.57-.02v.98h.47c.12,0,.21,0,.27,0,.06,0,.16-.02.28-.03,0,.03-.01.07-.02.1,0,.04,0,.07,0,.09,0,.02,0,.05,0,.1,0,.04.01.08.01.1-.07,0-.16-.02-.27-.03-.11,0-.2-.01-.29-.01h-.47v1.16c.21,0,.4,0,.57-.02.16-.01.32-.03.48-.05,0,.03-.01.07-.02.1,0,.04,0,.07,0,.09,0,.02,0,.05,0,.1,0,.04.01.08.01.1h-1.72v-3.11Z"/>
      <path class="st1" d="M113.84,54.6l.06.03-.1.39c-.13.07-.27.12-.42.15-.15.03-.31.05-.47.05-.49,0-.89-.14-1.21-.41-.32-.29-.49-.66-.49-1.12,0-.57.18-1.01.53-1.31.32-.28.74-.42,1.27-.42.16,0,.32.02.48.06.16.04.31.09.44.17-.02.06-.03.13-.05.22-.02.09-.04.17-.05.25h-.06c-.08-.12-.19-.23-.33-.3-.14-.08-.27-.12-.42-.12-.35,0-.62.15-.81.45-.16.26-.24.57-.24.95,0,.4.09.72.28.96s.45.36.79.36c.14,0,.28-.03.43-.09.15-.06.27-.14.38-.25Z"/>
      <path class="st1" d="M114.5,53.89v-1.86c.05,0,.12,0,.2.01.08,0,.13.01.14.01.05,0,.09,0,.13,0,.13-.01.2-.02.21-.02v1.5c0,.12,0,.23,0,.34,0,.11.01.23.03.34.02.11.05.21.07.28.03.07.08.14.16.22.14.13.31.2.51.2s.38-.04.5-.12c.12-.08.22-.22.3-.43.04-.09.06-.21.07-.37,0-.16.01-.35.01-.57v-1.38h.18s.18,0,.18,0v1.62c0,.33-.02.58-.06.73-.07.25-.2.44-.41.59-.11.09-.24.15-.39.18-.15.04-.3.06-.46.06-.31,0-.58-.05-.79-.16-.26-.13-.43-.33-.51-.61-.02-.08-.04-.17-.05-.27-.01-.1-.02-.2-.02-.29Z"/>
      <path class="st1" d="M117.94,55.16v-3.13h.96c.21,0,.36,0,.45.01.1,0,.19.03.27.08.26.14.39.36.39.65,0,.22-.06.4-.19.54-.13.14-.3.24-.51.28.12.21.28.47.49.8.14.22.24.38.31.48l.18.28c-.06,0-.13,0-.23-.01s-.16-.01-.18-.01c-.06,0-.13,0-.23.01s-.16.01-.17.01l-.54-.96-.29-.51h-.03v1.46c-.05,0-.09,0-.13,0-.13-.01-.2-.02-.21-.02-.05,0-.12,0-.2.01s-.13.01-.14.01ZM118.62,52.28v1.22s.04,0,.06,0h.06c.39,0,.59-.22.59-.65,0-.07,0-.15-.02-.23-.03-.14-.1-.24-.21-.29-.08-.03-.19-.05-.35-.05h-.13Z"/>
      <path class="st1" d="M120.71,52.03h1.72s-.01.07-.02.1c0,.04,0,.07,0,.09,0,.02,0,.05,0,.1,0,.04.01.08.01.1-.15-.02-.31-.04-.48-.05-.16-.01-.35-.02-.57-.02v.98h.47c.12,0,.21,0,.27,0,.06,0,.16-.02.28-.03,0,.03-.01.07-.02.1,0,.04,0,.07,0,.09,0,.02,0,.05,0,.1,0,.04.01.08.01.1-.07,0-.16-.02-.27-.03-.11,0-.2-.01-.29-.01h-.47v1.16c.21,0,.4,0,.57-.02.16-.01.32-.03.48-.05,0,.03-.01.07-.02.1,0,.04,0,.07,0,.09,0,.02,0,.05,0,.1,0,.04.01.08.01.1h-1.72v-3.11Z"/>
    </g>
    <path id="SVGID" class="st1" d="M44.85,47.94l1.29-7.6h1.94l1.55,4.06,1.63-4.06h1.97l1.15,7.6h-1.97l-.56-4.37h-.02l-1.83,4.37h-.78l-1.75-4.37h-.02l-.63,4.37h-1.96ZM60.35,44.27c.13.34.19.74.19,1.2v.19h-3.86c0,.77.38,1.15,1.15,1.15.39,0,.69-.16.88-.48h1.77c-.09.39-.27.72-.54.99-.25.26-.56.46-.94.6-.36.13-.75.19-1.16.19-.56,0-1.08-.11-1.54-.32-.46-.22-.82-.53-1.07-.94-.26-.42-.38-.92-.38-1.49s.12-1.04.36-1.47c.25-.42.58-.74,1.01-.96.43-.22.93-.33,1.49-.33.44,0,.84.07,1.2.2.35.13.65.31.89.56.24.25.42.55.55.91h0ZM57.09,44c-.21.15-.33.35-.38.61h2.13c-.04-.24-.16-.44-.36-.6-.19-.15-.42-.22-.67-.22-.27,0-.51.07-.7.21h0ZM65.31,47.94v-.58h-.02c-.14.23-.36.42-.65.56-.28.13-.58.19-.91.19-.5,0-.94-.13-1.34-.38-.21-.14-.4-.29-.55-.46-.15-.17-.28-.35-.39-.55-.22-.43-.33-.88-.33-1.37,0-.37.06-.72.19-1.05.12-.33.3-.63.54-.89.24-.26.51-.46.83-.6.31-.14.65-.21,1.04-.21.3,0,.6.06.9.17.29.11.52.28.7.51v-3.7h1.84v8.37h-1.84ZM64.82,44.35c-.17-.11-.38-.16-.63-.16s-.45.05-.63.16c-.18.1-.32.24-.41.42-.1.18-.14.38-.14.59,0,.33.11.61.32.83.21.22.5.33.86.33s.65-.11.86-.33c.22-.22.32-.49.32-.83,0-.21-.05-.4-.14-.59-.09-.18-.23-.32-.41-.42h0ZM68.75,39.9c.16-.1.33-.14.51-.14s.35.05.52.14c.16.09.28.21.37.37.1.16.14.34.14.52s-.05.35-.14.51c-.1.16-.22.29-.37.37-.16.1-.34.14-.52.14s-.35-.05-.51-.14c-.15-.08-.28-.21-.37-.37-.1-.17-.14-.34-.14-.51s.05-.34.14-.52c.09-.16.21-.28.37-.37h0ZM70.19,42.77v5.17h-1.84v-5.17h1.84ZM73.96,42.6c.45,0,.85.1,1.21.3v1.55c-.33-.24-.65-.36-.95-.36-.24,0-.45.05-.63.16-.19.11-.34.27-.45.46-.11.19-.17.41-.17.64,0,.37.12.67.36.91.24.24.55.36.93.36.35,0,.66-.12.92-.35v1.55c-.4.2-.84.3-1.29.3-.49,0-.95-.12-1.4-.35-.43-.23-.78-.55-1.03-.96-.26-.42-.38-.88-.38-1.38,0-.42.07-.8.22-1.14.15-.34.36-.63.62-.89.27-.26.58-.46.93-.58.35-.13.73-.2,1.13-.2h0ZM82.01,42.77v5.17h-1.84v-.58h-.02c-.15.23-.37.42-.65.56-.29.13-.59.19-.91.19-.5,0-.94-.13-1.34-.38-.4-.25-.72-.59-.94-1.01-.22-.43-.33-.88-.33-1.37,0-.38.06-.73.19-1.05.12-.34.3-.64.54-.89.24-.26.51-.46.82-.6.31-.14.66-.21,1.04-.21.31,0,.61.06.9.17.28.12.52.29.7.51v-.51h1.84ZM79.69,44.35c-.16-.11-.37-.16-.63-.16s-.46.05-.63.16c-.19.1-.32.24-.41.42-.1.17-.14.37-.14.59,0,.34.1.62.31.83.21.22.5.33.87.33s.66-.11.87-.33c.21-.21.31-.48.31-.83,0-.21-.05-.41-.14-.59-.1-.18-.23-.32-.41-.42h0ZM85.12,39.57v8.37h-1.84v-8.37h1.84ZM93.58,43.7h3.92c0,.47-.03.85-.07,1.13-.03.28-.1.6-.22.95-.12.33-.28.64-.49.93-.71.99-1.75,1.49-3.13,1.49-.77,0-1.48-.17-2.11-.5-.63-.34-1.11-.82-1.43-1.42-.34-.61-.52-1.31-.52-2.09,0-.58.1-1.14.3-1.67.19-.51.48-.94.85-1.3.36-.35.8-.63,1.31-.83.51-.19,1.06-.29,1.67-.29.52,0,1,.08,1.44.23.43.16.82.4,1.16.71.34.33.62.73.83,1.18l-1.88.78c-.13-.37-.34-.66-.63-.89-.28-.21-.62-.32-1.01-.32-.41,0-.77.11-1.07.34-.3.24-.53.54-.67.9-.15.37-.23.76-.23,1.16s.08.78.23,1.15c.16.37.39.66.69.89.31.23.67.34,1.08.34.28,0,.54-.05.77-.15.24-.1.42-.25.57-.44.14-.18.22-.43.25-.73h-1.61v-1.55ZM100.26,42.77v.85h.02c.34-.61.9-.92,1.67-.92h.35v1.76c-.22-.11-.47-.17-.77-.17-.47,0-.8.14-.99.41-.19.26-.28.64-.28,1.15v2.09h-1.84v-5.17h1.84ZM104.21,42.92c.48-.21,1-.32,1.56-.32s1.07.11,1.55.32c.23.1.44.23.63.4.19.16.36.35.51.56.28.43.42.92.42,1.48s-.14,1.05-.42,1.47c-.29.42-.67.73-1.14.95-.48.22-1,.32-1.55.32s-1.07-.11-1.56-.32c-.24-.11-.45-.25-.64-.41-.19-.16-.36-.34-.5-.55-.28-.42-.42-.91-.42-1.47s.14-1.05.42-1.48c.28-.42.66-.74,1.14-.96h0ZM106.39,44.35c-.17-.11-.38-.16-.63-.16s-.45.05-.63.16c-.19.1-.32.24-.41.42-.1.18-.14.38-.14.59,0,.33.11.61.32.83.21.22.5.33.86.33s.66-.11.87-.33c.21-.21.31-.49.31-.83,0-.21-.05-.4-.14-.59-.1-.18-.23-.32-.41-.42h0ZM109.73,42.77h1.83v2.77c0,.36.06.64.19.84.13.19.37.28.73.28s.6-.09.72-.28c.13-.19.19-.47.19-.84v-2.77h1.84v3.12c0,1.49-.92,2.23-2.75,2.23s-2.75-.74-2.75-2.23v-3.12ZM118.23,42.77v.59h.02c.15-.24.37-.43.66-.57.27-.12.57-.19.91-.19.38,0,.73.07,1.05.22.33.15.61.35.84.6.24.26.41.56.53.89.13.32.19.67.19,1.06s-.06.72-.18,1.05c-.13.34-.31.64-.54.89-.24.26-.51.45-.83.6-.32.14-.67.21-1.04.21-.31,0-.6-.06-.89-.17-.29-.11-.53-.28-.72-.49v3.07h-1.83v-7.75h1.83ZM119.98,44.35c-.17-.11-.38-.16-.63-.16s-.45.05-.63.16c-.19.1-.32.24-.41.42-.1.17-.14.37-.14.59,0,.34.1.62.32.83.21.22.5.33.87.33s.66-.11.87-.33c.21-.21.31-.48.31-.83,0-.21-.05-.41-.14-.59-.09-.18-.23-.32-.41-.42h0Z"/>
    <g>
      <path class="st1" d="M49.82,13.16h-1.08c-.61,0-1.04-.32-1.29-.96-.19.3-.56.47-1.09.47-.92,0-1.51-.81-1.51-1.89,0-1.16.57-1.91,1.58-1.91,0,0,.68,0,2.04,0v2.46c0,.52.26.8.78.8h.55v1.05ZM47.38,10.69v-1.03h-.7c-.44,0-.76.49-.76,1.1,0,.55.31,1,.73,1,.45,0,.73-.43.73-1.07ZM46.66,8.13h-.95v-.91h.95v.91ZM48.1,8.13h-.95v-.91h.95v.91Z"/>
      <path class="st1" d="M51.25,13.16h-1.64v-1.05h1.64v1.05Z"/>
      <path class="st1" d="M51.92,14.46h-.95v-.91h.95v.91ZM54.59,13.16h-3.45v-1.05h.7c.36,0,.54-.25.54-.75v-1.74h1.08v1.7c0,.29-.04.55-.12.79h1.25v1.05ZM53.36,14.46h-.95v-.91h.95v.91Z"/>
      <path class="st1" d="M56.08,13.16h-1.64v-1.05h1.64v1.05Z"/>
      <path class="st1" d="M59.4,13.16h-3.45v-1.05h.7c.36,0,.54-.25.54-.75v-1.74h1.08v1.7c0,.29-.05.55-.13.79h1.26v1.05ZM58.17,14.46h-.95v-.91h.95v.91Z"/>
      <path class="st1" d="M66.55,13.16h-7.27v-1.05h1.23v-3.99h1.06l-.1,2.56c.69-.73,1.38-1.08,2.14-1.08,1.26,0,1.98.91,2.1,2.51h.83v1.05ZM64.59,12.11c0-.05,0-.1,0-.16,0-.81-.4-1.4-1.06-1.4-.79,0-1.49.52-2.08,1.56h3.14Z"/>
      <path class="st1" d="M68.63,11.65c0,.41-.12.76-.34,1.03-.25.32-.61.48-1.06.48h-1.01v-1.05h.79c.36,0,.54-.26.54-.77v-3.22h1.07v3.52Z"/>
      <path class="st1" d="M70.49,13.16h-1.07v-5.04h1.07v5.04Z"/>
      <path class="st1" d="M76.31,13c0,.96-.58,1.45-1.75,1.45h-.11v-.88h.07c.43,0,.85-.3.85-.73-.15.24-.4.36-.76.36-.99,0-1.72-.77-1.72-1.81s.72-1.79,1.72-1.79,1.7.77,1.7,1.81v1.59ZM75.23,11.41c0-.48-.27-.81-.65-.81s-.63.33-.63.79.25.81.67.81c.38,0,.61-.3.61-.78Z"/>
      <path class="st1" d="M80.22,13.16h-1.19c-.18.86-.87,1.29-2.08,1.29v-.88c.7,0,1.06-.34,1.06-1.03v-2.91h1.08v2.49h1.13v1.05Z"/>
      <path class="st1" d="M81.63,13.16h-1.64v-1.05h1.64v1.05Z"/>
      <path class="st1" d="M82.3,9.03h-.95v-.9h.95v.9ZM84.95,13.16h-3.45v-1.05h.7c.36,0,.54-.25.54-.75v-1.74h1.08v1.7c0,.29-.05.55-.13.79h1.26v1.05ZM83.74,9.03h-.95v-.9h.95v.9Z"/>
      <path class="st1" d="M86.44,13.16h-1.64v-1.05h1.64v1.05Z"/>
      <path class="st1" d="M90.82,12.05c0,1.05-.69,1.78-1.76,1.78-.65,0-1.14-.23-1.46-.67h-1.38v-1.05h1.06c0-1.12.63-1.83,1.73-1.83s1.8.7,1.8,1.77ZM89.76,12.09c0-.62-.23-.93-.68-.93h-.08c-.39,0-.66.37-.66.88s.26.9.72.9c.42,0,.7-.34.7-.85Z"/>
      <path class="st1" d="M97.85,13.16h-1.08c-.61,0-1.04-.32-1.29-.96-.19.3-.56.47-1.09.47-.92,0-1.51-.81-1.51-1.89,0-1.16.57-1.91,1.58-1.91,0,0,.68,0,2.04,0v2.46c0,.52.26.8.78.8h.55v1.05ZM94.69,8.13h-.95v-.91h.95v.91ZM95.41,10.69v-1.03h-.7c-.44,0-.76.49-.76,1.1,0,.55.31,1,.73,1,.45,0,.73-.43.73-1.07ZM96.13,8.13h-.95v-.91h.95v.91Z"/>
      <path class="st1" d="M101.91,13.16h-4.31v-1.05h1.21c-.1-.27-.15-.52-.15-.75,0-.51.16-.95.48-1.31.33-.36.74-.54,1.25-.54.65,0,1.2.38,1.47.99l-.88.41c-.1-.3-.3-.46-.61-.46-.21,0-.38.09-.5.27-.11.15-.16.34-.16.58,0,.41.15.69.43.81h1.78v1.05Z"/>
      <path class="st1" d="M107.07,13.16h-1.01c-.12.86-.7,1.29-1.75,1.29h-.12v-.88h.09c.41,0,.66-.16.74-.46-.08.03-.3.05-.66.05-1,0-1.74-.74-1.74-1.78s.72-1.77,1.74-1.77,1.7.75,1.7,1.79v.71h1v1.05ZM105,12.11v-.76c0-.46-.27-.76-.66-.76s-.62.32-.62.73c0,.45.26.78.66.78h.62Z"/>
      <path class="st1" d="M112.09,13.16h-1.23c-.31.45-.8.67-1.43.67s-1.13-.23-1.46-.67h-1.17v-1.05h.86c0-1.13.63-1.83,1.74-1.83s1.79.68,1.79,1.83h.9v1.05ZM110.13,12.09c0-.62-.23-.93-.68-.93h-.08c-.39,0-.65.38-.65.88s.26.9.71.9.7-.33.7-.85Z"/>
      <path class="st1" d="M118.23,13.16h-6.4v-1.05h4.35c-.02-.41-.17-.77-.44-1.06-.3-.34-.7-.51-1.18-.51s-.98.24-1.28.56c-.11-.15-.28-.39-.54-.74.52-.56,1.15-.83,1.89-.83.45,0,.85.09,1.19.25.82.4,1.3,1.17,1.43,2.33h.96v1.05ZM115.2,14.46h-.95v-.91h.95v.91Z"/>
      <path class="st1" d="M122.42,12.05c0,1.05-.69,1.78-1.76,1.78-.65,0-1.14-.23-1.46-.67h-1.38v-1.05h1.06c0-1.12.63-1.83,1.73-1.83s1.8.7,1.8,1.77ZM121.36,12.09c0-.62-.23-.93-.68-.93h-.08c-.39,0-.66.37-.66.88s.26.9.72.9c.42,0,.7-.34.7-.85Z"/>
    </g>
    <g>
      <path class="st1" d="M44.85,36.23l3.28-19.33h4.94l3.93,10.33,4.14-10.33h5.01l2.92,19.33h-5.02l-1.41-11.13h-.05l-4.64,11.13h-1.99l-4.44-11.13h-.05l-1.61,11.13h-4.99Z"/>
      <path class="st1" d="M84.61,29.94v.49h-9.81c0,1.95.97,2.93,2.92,2.93,1,0,1.74-.4,2.23-1.21h4.49c-.23.99-.69,1.83-1.36,2.52-.64.67-1.44,1.17-2.38,1.51-.92.33-1.9.49-2.95.49-1.44,0-2.74-.28-3.92-.83s-2.08-1.34-2.71-2.38c-.65-1.07-.98-2.33-.98-3.79s.31-2.66.93-3.74c.63-1.08,1.48-1.89,2.57-2.44,1.09-.56,2.36-.84,3.79-.84,1.13,0,2.14.17,3.04.51.89.33,1.65.8,2.27,1.43.6.63,1.07,1.4,1.4,2.32.33.86.49,1.87.49,3.04ZM74.87,27.74h5.41c-.1-.62-.41-1.12-.93-1.51-.48-.38-1.06-.56-1.71-.56-.69,0-1.29.18-1.79.54-.53.38-.85.89-.98,1.54Z"/>
      <path class="st1" d="M91.83,26.93v9.3h-4.66v-9.3h-1.51v-3.86h1.51v-3.94h4.66v3.94h2.64v3.86h-2.64Z"/>
      <path class="st1" d="M100.63,23.07v2.15h.05c.86-1.55,2.28-2.33,4.26-2.33h.89v4.48c-.55-.28-1.21-.43-1.97-.43-1.18,0-2.02.35-2.52,1.05-.48.67-.71,1.64-.71,2.92v5.31h-4.67v-13.16h4.67Z"/>
      <path class="st1" d="M114.53,22.64c1.42,0,2.73.27,3.94.81.58.26,1.12.6,1.61,1.01s.92.89,1.29,1.43c.72,1.08,1.08,2.34,1.08,3.77s-.36,2.68-1.08,3.74c-.73,1.06-1.7,1.87-2.9,2.43-1.23.55-2.54.83-3.94.83s-2.71-.28-3.96-.83c-.6-.29-1.14-.64-1.62-1.03-.48-.4-.9-.86-1.27-1.4-.72-1.06-1.08-2.31-1.08-3.74s.36-2.68,1.08-3.77c.72-1.06,1.68-1.87,2.89-2.44,1.23-.54,2.54-.81,3.96-.81ZM114.53,26.69c-.62,0-1.15.14-1.59.41-.48.26-.83.62-1.05,1.08-.24.47-.36.96-.36,1.49,0,.85.28,1.55.83,2.1.53.56,1.26.84,2.18.84s1.67-.28,2.2-.84c.53-.53.8-1.23.8-2.1,0-.53-.12-1.02-.36-1.49-.24-.47-.59-.83-1.05-1.08-.44-.28-.97-.41-1.59-.41Z"/>
    </g>
    <g>
      <path class="st1" d="M24.23,23.24c0,.12-.04.24-.11.34-.11.16-.29.26-.49.26-.07,0-.15-.01-.21-.04-.22-.09-.38-.3-.38-.56,0-.1.03-.2.07-.28-.56-1.05-1.67-1.77-2.95-1.77s-2.44.75-2.99,1.84v-1.27c.75-.8,1.81-1.3,2.99-1.3,1.58,0,2.95.9,3.63,2.21.26.06.45.3.45.58Z"/>
      <path class="st1" d="M27.51,22.1c-.28.26-.51.57-.69.92.04.08.07.18.07.27,0,.24-.15.45-.36.55-.07.03-.16.05-.24.05-.19,0-.36-.09-.47-.23-.08-.1-.12-.23-.12-.37,0-.28.19-.52.46-.58.31-.63.78-1.16,1.36-1.55v.94Z"/>
      <path class="st1" d="M32.87,27.25c-.05.05-.1.11-.15.16l-.05.05-7.17,7.17,2.12,2.12c.25.25.47.54.64.85h-.76v.17c-.09-.14-.19-.27-.3-.39-.08-.09-.17-.18-.26-.26l-1.53-1.53-.44-.44-.52-.52-7.22-7.22s-.1-.1-.15-.16h.07v-1.19c.13.26.3.5.49.72.08.09.17.18.26.26l7.06,7.06,6.85-6.85h1.03Z"/>
      <path class="st1" d="M25.17,38.05c-.42.44-.88.85-1.37,1.23,0,0-.01,0-.02.01-.08.06-.16.12-.24.18-.08.05-.15.11-.23.16-.04.02-.08.03-.12.05-.27.1-.55.19-.83.28-.18.05-.37.1-.56.15-.44.11-.88.19-1.34.24-.18,0-.36-.02-.54-.03-.11-.01-.23-.03-.34-.04-.18-.03-.37-.06-.55-.1-.15-.03-.29-.07-.43-.11-.01,0-.02,0-.03-.01-.49-.15-.96-.34-1.41-.58v-1.84c.32,0,.63.06.91.16h0c.06.02.12.05.18.07,0,0,0,0,0,0,.23.09.45.19.67.3.24.12.48.24.72.37h0s.03.02.05.03c.08.04.17.07.27.07h.05c.59,0,1.17.05,1.74.14.06.01.12.02.19.03.05,0,.11.02.17.03s.11.02.16.03c.01,0,.02,0,.03,0h0c.06.02.12.05.17.09.03.03.06.06.08.09,0,0,.01.02.02.03,0,0,0,0,0,0,0,0,0,0,0,0,0,.01,0,.02,0,.04,0,.04-.02.07-.05.09h0s-.07.03-.1.04c-.02,0-.04,0-.06,0,0,0,0,0-.01,0-.11,0-.23,0-.34.02-.02,0-.05,0-.07,0-.05,0-.09,0-.14.01h-.1c-.24.03-.48.06-.72.1h0s-.02,0-.03,0c-.13.02-.25.04-.37.06-.13.04-.25.09-.37.16.14.03.28.05.43.05.08,0,.17,0,.25-.02.02,0,.04,0,.05,0,.09-.02.18-.03.27-.04.18-.03.36-.05.54-.07.05,0,.09-.01.14-.02.18-.02.36-.03.54-.04h0s.02,0,.03,0c.04,0,.08-.01.11-.02.08-.02.16-.06.23-.11h0s.06-.06.08-.09c.02-.03.03-.07.03-.11,0-.05-.02-.1-.04-.14-.02-.03-.04-.05-.06-.07.09-.04.18-.08.27-.13.29-.15.58-.31.86-.48.03-.02.06-.04.1-.06t0,0c.25-.15.55-.23.86-.23.09,0,.17,0,.25.02Z"/>
      <path class="st1" d="M27.51,41.45v1.13c-.73.69-1.72,1.11-2.8,1.11s-1.98-.38-2.7-1.02c-.11.05-.24.07-.37.07-.53,0-.96-.43-.96-.96,0-.25.09-.47.24-.64.16-.18.4-.3.66-.32.02,0,.04,0,.06,0,.53,0,.96.43.96.96,0,.13-.03.26-.08.37.59.5,1.35.81,2.18.81,1.17,0,2.2-.6,2.8-1.51Z"/>
      <g>
        <path class="st2" d="M22.53,42.15c.05-.11.08-.24.08-.37,0-.53-.43-.96-.96-.96-.02,0-.04,0-.06,0-.26.02-.5.14-.66.32-.15.17-.24.4-.24.64,0,.53.43.96.96.96.13,0,.25-.03.37-.07.72.64,1.67,1.02,2.7,1.02s2.07-.42,2.8-1.11v5.36h-10.35v-8.48c.44.24.91.44,1.41.58.01,0,.02,0,.03.01.14.04.29.08.43.11.18.04.36.07.55.1.11.02.23.03.34.04.18.02.36.03.54.03.45-.05.9-.14,1.34-.24.19-.04.37-.09.56-.15.28-.08.56-.17.83-.28.04-.02.08-.03.12-.05.08-.05.15-.11.23-.16.08-.06.16-.12.24-.18,0,0,.01-.01.02-.01.49-.37.95-.78,1.37-1.23-.08-.01-.17-.02-.25-.02-.31,0-.61.08-.86.23t0,0s-.06.04-.1.06c-.28.17-.57.34-.86.48-.09.05-.18.09-.27.13.03.02.05.04.06.07.03.04.04.09.04.14,0,.04-.01.08-.03.11-.02.04-.04.07-.08.09h0c-.07.05-.15.09-.23.11-.04,0-.08.02-.11.02-.01,0-.02,0-.03,0h0c-.18,0-.36.02-.54.04-.04,0-.09.01-.14.02-.18.02-.36.04-.54.07-.09.01-.18.03-.27.04-.02,0-.04,0-.05,0-.08.01-.17.02-.25.02-.15,0-.29-.02-.43-.05.11-.06.24-.12.37-.16.12-.02.25-.04.37-.06.01,0,.02,0,.03,0h0c.24-.04.48-.06.72-.09h.1s.1-.02.14-.02c.02,0,.05,0,.07,0,.11,0,.23-.01.34-.02,0,0,0,0,.01,0,.02,0,.04,0,.06,0,.04,0,.07-.02.1-.04h0s.05-.05.05-.09c0-.01,0-.03,0-.04,0,0,0,0,0,0,0,0,0,0,0,0,0,0-.01-.02-.02-.03-.02-.03-.05-.06-.08-.09-.05-.04-.1-.07-.17-.09h0s-.02,0-.03,0c-.05-.01-.11-.02-.16-.03s-.11-.02-.17-.03c-.06-.01-.13-.02-.19-.03-.57-.09-1.15-.14-1.74-.14h-.05c-.1,0-.19-.03-.27-.07-.02-.01-.04-.02-.05-.03h0c-.23-.14-.47-.26-.72-.38-.22-.11-.44-.21-.67-.3,0,0,0,0,0,0-.06-.03-.12-.05-.18-.07h0c-.28-.1-.59-.16-.91-.16v-.03H6.82v-10.34h10.28c.05.05.1.11.15.16l7.22,7.22.52.52.44.44,1.53,1.53c.09.08.18.17.26.26.11.12.21.25.3.39v3.69c-.6.91-1.63,1.51-2.8,1.51-.83,0-1.59-.3-2.18-.81Z"/>
        <path class="st2" d="M31.83,27.25l-6.85,6.85-7.06-7.06c-.09-.08-.18-.17-.26-.26-.19-.22-.36-.46-.49-.72v-3.03c.55-1.09,1.68-1.84,2.99-1.84s2.39.71,2.95,1.77c-.04.09-.07.18-.07.28,0,.25.16.47.38.56.06.03.14.04.21.04.21,0,.38-.1.49-.26.07-.1.11-.21.11-.34,0-.28-.19-.51-.45-.58-.68-1.31-2.05-2.21-3.63-2.21-1.18,0-2.25.5-2.99,1.3v-4.86h10.35v4.26c-.57.39-1.04.93-1.36,1.55-.27.06-.46.3-.46.58,0,.14.05.27.12.37.11.14.28.23.47.23.09,0,.17-.02.24-.05.21-.09.36-.3.36-.55,0-.1-.02-.19-.07-.27.18-.35.41-.66.69-.92v5.15h4.32Z"/>
        <path class="st2" d="M37.86,27.25v10.34h-9.59c-.18-.31-.4-.6-.64-.85l-2.12-2.12,7.17-7.17.05-.05s.1-.1.15-.16h4.99Z"/>
      </g>
    </g>
  </g>
</svg>